<svg width="1000" height="350" viewBox="0 30 1000 350" fill="none" xmlns="http://www.w3.org/2000/svg">
  <defs>
    <linearGradient id="pinGradient" x1="330" y1="70" x2="110" y2="310" gradientUnits="userSpaceOnUse">
      <stop offset="0%" stop-color="#62C2FF"/>
      <stop offset="52%" stop-color="#2A7EF2"/>
      <stop offset="100%" stop-color="#1A5DD4"/>
    </linearGradient>

    <linearGradient id="greenGradient" x1="0" y1="90" x2="0" y2="310" gradientUnits="userSpaceOnUse">
      <stop offset="0%" stop-color="#3DB549"/>
      <stop offset="100%" stop-color="#5DC228"/>
    </linearGradient>

    <style>
      .mainText {
        font-family: "Montserrat", "Avenir Next", "Poppins", "Segoe UI", Arial, sans-serif;
        font-weight: 700;
        letter-spacing: -0.02em;
      }
      .tagText {
        font-family: "Montserrat", "Avenir Next", "Poppins", "Segoe UI", Arial, sans-serif;
        font-weight: 600;
        letter-spacing: -0.01em;
      }
      .dark-text { fill: #182B52; }
    </style>
  </defs>

  <path
    d="M210 55
       C130 55 85 115 85 175
       C85 270 165 335 200 370
       C205 375 210 378 215 378
       C220 378 225 375 230 370
       C265 335 345 270 345 175
       C345 115 290 55 210 55Z"
    fill="url(#pinGradient)"/>

  <path
    d="M190 135
       C190 110 205 95 225 95
       L225 225
       L280 225
       C278 245 258 265 220 280
       L175 280
       L175 145
       C175 120 182 105 190 100Z"
    fill="white"/>

  <text x="400" y="243" class="mainText" font-size="162">
    <tspan class="dark-text">Listo</tspan><tspan fill="url(#greenGradient)">jo</tspan>
  </text>
 
  <text x="660" y="323" class="tagText" font-size="52" text-anchor="middle">
    <tspan class="dark-text">List It. Find It. </tspan>
    <tspan fill="url(#greenGradient)">Go.</tspan>
  </text>
</svg>
