<svg width="980" height="300" viewBox="0 0 980 300" fill="none" xmlns="http://www.w3.org/2000/svg">
  <defs>
    <linearGradient id="listojoBlue" x1="260" y1="28" x2="88" y2="252" gradientUnits="userSpaceOnUse">
      <stop offset="0" stop-color="#62CCFF"/>
      <stop offset="1" stop-color="#1548CE"/>
    </linearGradient>
  </defs>

  <path d="M182 262C210 239 276 181 276 122C276 70.1 233.9 28 182 28C130.1 28 88 70.1 88 122C88 181 154 239 182 262Z" fill="url(#listojoBlue)"/>
  <path d="M178 62C146.5 62 121 87.5 121 119V190H188.5C222.2 190 249.5 162.7 249.5 129H191.5C184 129 178 123 178 115.5V62Z" fill="url(#listojoBlue)" stroke="#EAF3FF" stroke-width="6" stroke-linejoin="round"/>

  <text x="322" y="175" fill="#1B2F5F" font-size="140" font-family="Montserrat, 'Sora', 'Inter', Arial, sans-serif" font-weight="700" letter-spacing="-1.8">Listojo</text>
  <text x="324" y="248" fill="#2A4B86" font-size="64" font-family="Montserrat, 'Sora', 'Inter', Arial, sans-serif" font-weight="600" letter-spacing="-0.3">List It. Find It. Go.</text>
</svg>
