<svg width="110" height="133" viewBox="0 0 110 133" fill="none" xmlns="http://www.w3.org/2000/svg">
  <defs>
    <linearGradient id="markGradient" x1="110" y1="0" x2="0" y2="133" gradientUnits="userSpaceOnUse">
      <stop offset="0%" stop-color="#62C2FF"/>
      <stop offset="52%" stop-color="#2A7EF2"/>
      <stop offset="100%" stop-color="#123FC5"/>
    </linearGradient>
  </defs>

  <!-- Pin: scaled to fit 110×133 -->
  <path
    d="M55 0
       C20 0 0 28 0 58
       C0 93 32 118 48 130
       C50 132 52 133 55 133
       C58 133 60 132 62 130
       C78 118 110 93 110 58
       C110 28 90 0 55 0Z"
    fill="url(#markGradient)"/>

  <!-- White L: path-based, scaled from logo -->
  <path
    d="M49 32
       C49 25 53 21 58 21
       L58 75
       L79 75
       C78 82 71 89 58 94
       L42 94
       L42 38
       C42 31 45 24 49 24Z"
    fill="white"/>
</svg>
